<svg width="50" height="50" viewBox="0 0 50 50" fill="none" xmlns="http://www.w3.org/2000/svg">
<path d="M28.8127 39.5833C28.5014 39.5844 28.1939 39.5157 27.9127 39.3823C27.6315 39.2489 27.3838 39.0542 27.1877 38.8125L17.1252 26.3125C16.8188 25.9397 16.6512 25.4721 16.6512 24.9896C16.6512 24.507 16.8188 24.0394 17.1252 23.6666L27.5418 11.1666C27.8955 10.7412 28.4036 10.4736 28.9545 10.4228C29.5054 10.3721 30.0539 10.5422 30.4793 10.8958C30.9048 11.2494 31.1723 11.7576 31.2231 12.3085C31.2739 12.8594 31.1038 13.4079 30.7502 13.8333L21.4377 25L30.4377 36.1666C30.6924 36.4724 30.8543 36.8448 30.904 37.2397C30.9538 37.6346 30.8893 38.0355 30.7184 38.3949C30.5474 38.7544 30.2771 39.0573 29.9394 39.2679C29.6017 39.4785 29.2107 39.588 28.8127 39.5833V39.5833Z" fill="#008074"/>
</svg>
