<svg width="50" height="50" viewBox="0 0 50 50" fill="none" xmlns="http://www.w3.org/2000/svg">
<path d="M20.8335 39.5834C20.3467 39.5843 19.8749 39.4148 19.5001 39.1042C19.2892 38.9293 19.1148 38.7145 18.987 38.4721C18.8592 38.2297 18.7804 37.9645 18.7553 37.6916C18.7301 37.4188 18.759 37.1436 18.8404 36.8819C18.9217 36.6203 19.0539 36.3772 19.2293 36.1667L28.5626 25L19.5626 13.8125C19.3896 13.5994 19.2603 13.3542 19.1824 13.091C19.1044 12.8278 19.0792 12.5518 19.1082 12.2788C19.1373 12.0058 19.22 11.7413 19.3516 11.5004C19.4832 11.2595 19.6611 11.0469 19.8751 10.875C20.0907 10.6854 20.3431 10.5423 20.6166 10.4548C20.89 10.3673 21.1786 10.3373 21.4642 10.3667C21.7499 10.396 22.0263 10.4841 22.2763 10.6253C22.5262 10.7666 22.7443 10.958 22.9168 11.1875L32.9793 23.6875C33.2857 24.0603 33.4532 24.5279 33.4532 25.0104C33.4532 25.493 33.2857 25.9606 32.9793 26.3334L22.5626 38.8334C22.3536 39.0855 22.0881 39.2848 21.7877 39.4151C21.4873 39.5454 21.1603 39.603 20.8335 39.5834Z" fill="#008074"/>
</svg>
